{
  "source": "C:\\Users\\Peter\\Desktop\\stuff\\MIUN\\quantitative_research\\video_compression\\videos\\BVI-HD\\BVI-HD_CDVL_videos\\ORIG\\BridgeRiver_1920x1080_30fps.mp4",
  "output": "C:\\Users\\Peter\\Desktop\\stuff\\MIUN\\quantitative_research\\video_compression\\compressed_videos\\BVI-HD\\av1\\3\\BridgeRiver_1920x1080_30fps_av1.mkv",
  "codec": "av1",
  "ok": "Input #0, mov,mp4,m4a,3gp,3g2,mj2, from 'C:\\Users\\Peter\\Desktop\\stuff\\MIUN\\quantitative_research\\video_compression\\videos\\BVI-HD\\BVI-HD_CDVL_videos\\ORIG\\BridgeRiver_1920x1080_30fps.mp4':\n  Metadata:\n    major_brand     : isom\n    minor_version   : 512\n    compatible_brands: isomiso2avc1mp41\n    encoder         : Lavf54.28.101\n  Duration: 00:00:05.00, start: 0.000000, bitrate: 274913 kb/s\n  Stream #0:0[0x1](und): Video: h264 (High 4:4:4 Predictive) (avc1 / 0x31637661), yuv420p(progressive), 1920x1080, 274910 kb/s, 30 fps, 30 tbr, 30 tbn (default)\n    Metadata:\n      handler_name    : VideoHandler\n      vendor_id       : [0][0][0][0]\n[out#0/matroska @ 000002a467538fc0] Codec AVOption b:a (set bitrate (in bits/s)) has not been used for any stream. The most likely reason is either wrong type (e.g. a video option with no video streams) or that it is a private option of some decoder which was not actually used for any stream.\nStream mapping:\n  Stream #0:0 -> #0:0 (h264 (native) -> av1 (libsvtav1))\nPress [q] to stop, [?] for help\nSvt[info]: -------------------------------------------\nSvt[info]: SVT [version]:\tSVT-AV1 Encoder Lib v3.1.0-19-g6ecfe8ec\nSvt[info]: SVT [build]  :\tGCC 15.2.0\t 64 bit\nSvt[info]: LIB Build date: Aug 17 2025 11:37:13\nSvt[info]: -------------------------------------------\nSvt[info]: Level of Parallelism: 5\nSvt[info]: Number of PPCS 93\nSvt[info]: [asm level on system : up to avx2]\nSvt[info]: [asm level selected : up to avx2]\nSvt[info]: -------------------------------------------\nSvt[info]: SVT [config]: main profile\ttier (auto)\tlevel (auto)\nSvt[info]: SVT [config]: width / height / fps numerator / fps denominator \t\t: 1920 / 1080 / 30 / 1\nSvt[info]: SVT [config]: bit-depth / color format \t\t\t\t\t: 8 / YUV420\nSvt[info]: SVT [config]: preset / tune / pred struct \t\t\t\t\t: 4 / PSNR / random access\nSvt[info]: SVT [config]: gop size / mini-gop size / key-frame type \t\t\t: 161 / 16 / key frame\nSvt[info]: SVT [config]: BRC mode / target bitrate (kbps)\t\t\t\t: VBR / 3000 \nSvt[info]: SVT [config]: AQ mode / Variance Boost \t\t\t\t\t: 2 / 0\nSvt[info]: SVT [config]: sharpness / luminance-based QP bias \t\t\t\t: 0 / 0\nSvt[info]: SVT [config]: QP scale compress strength \t\t\t\t\t: 0\nSvt[info]: -------------------------------------------\nOutput #0, matroska, to 'C:\\Users\\Peter\\Desktop\\stuff\\MIUN\\quantitative_research\\video_compression\\compressed_videos\\BVI-HD\\av1\\3\\BridgeRiver_1920x1080_30fps_av1.mkv':\n  Metadata:\n    major_brand     : isom\n    minor_version   : 512\n    compatible_brands: isomiso2avc1mp41\n    encoder         : Lavf62.3.100\n  Stream #0:0(und): Video: av1 (AV01 / 0x31305641), yuv420p(tv, progressive), 1920x1080, q=2-31, 3000 kb/s, 30 fps, 1k tbn (default)\n    Metadata:\n      encoder         : Lavc62.11.100 libsvtav1\n      handler_name    : VideoHandler\n      vendor_id       : [0][0][0][0]\n    Side data:\n      cpb: bitrate max/min/avg: 0/0/3000000 buffer size: 3000000 vbv_delay: N/A\nframe=    0 fps=0.0 q=0.0 size=       0KiB time=N/A bitrate=N/A speed=N/A elapsed=0:00:01.08    \nframe=    0 fps=0.0 q=0.0 size=       0KiB time=N/A bitrate=N/A speed=N/A elapsed=0:00:01.60    \nframe=    0 fps=0.0 q=0.0 size=       0KiB time=N/A bitrate=N/A speed=N/A elapsed=0:00:02.37    \nframe=    0 fps=0.0 q=0.0 size=       0KiB time=N/A bitrate=N/A speed=N/A elapsed=0:00:02.98    \nframe=    0 fps=0.0 q=0.0 size=       0KiB time=N/A bitrate=N/A speed=N/A elapsed=0:00:03.68    \nframe=    0 fps=0.0 q=0.0 size=       0KiB time=N/A bitrate=N/A speed=N/A elapsed=0:00:04.36    \nframe=    0 fps=0.0 q=0.0 size=       0KiB time=N/A bitrate=N/A speed=N/A elapsed=0:00:04.92    \nframe=    0 fps=0.0 q=0.0 size=       0KiB time=N/A bitrate=N/A speed=N/A elapsed=0:00:05.45    \nframe=    0 fps=0.0 q=0.0 size=       0KiB time=N/A bitrate=N/A speed=N/A elapsed=0:00:05.97    \nframe=    1 fps=0.2 q=23.0 size=       1KiB time=00:00:00.00 bitrate=N/A speed=   0x elapsed=0:00:06.49    \nframe=    1 fps=0.1 q=23.0 size=       1KiB time=00:00:00.00 bitrate=N/A speed=   0x elapsed=0:00:07.00    \nframe=    3 fps=0.4 q=49.0 size=       1KiB time=00:00:00.00 bitrate=N/A speed=   0x elapsed=0:00:07.53    \nframe=    5 fps=0.6 q=48.0 size=       1KiB time=00:00:00.13 bitrate=  42.8kbits/s speed=0.0165x elapsed=0:00:08.06    \nframe=    8 fps=0.9 q=51.0 size=       1KiB time=00:00:00.23 bitrate=  24.4kbits/s speed=0.0271x elapsed=0:00:08.59    \nframe=   10 fps=1.1 q=51.0 size=       1KiB time=00:00:00.30 bitrate=  19.0kbits/s speed=0.0328x elapsed=0:00:09.14    \nframe=   14 fps=1.4 q=51.0 size=       1KiB time=00:00:00.40 bitrate=  14.3kbits/s speed=0.0413x elapsed=0:00:09.68    \nframe=   18 fps=1.8 q=51.0 size=       1KiB time=00:00:00.56 bitrate=  10.1kbits/s speed=0.0553x elapsed=0:00:10.24    \nframe=   21 fps=1.9 q=46.0 size=       1KiB time=00:00:00.66 bitrate=   8.6kbits/s speed=0.0617x elapsed=0:00:10.80    \nframe=   24 fps=2.1 q=51.0 size=       1KiB time=00:00:00.73 bitrate=   7.8kbits/s speed=0.0644x elapsed=0:00:11.38    \nframe=   27 fps=2.3 q=47.0 size=       1KiB time=00:00:00.86 bitrate=   6.6kbits/s speed=0.0725x elapsed=0:00:11.94    \nframe=   33 fps=2.6 q=37.0 size=       1KiB time=00:00:01.06 bitrate=   5.3kbits/s speed=0.0854x elapsed=0:00:12.49    \nframe=   36 fps=2.8 q=51.0 size=       1KiB time=00:00:01.16 bitrate=   4.9kbits/s speed=0.0896x elapsed=0:00:13.01    \nframe=   39 fps=2.9 q=46.0 size=       1KiB time=00:00:01.26 bitrate=   4.5kbits/s speed=0.0935x elapsed=0:00:13.54    \nframe=   43 fps=3.0 q=48.0 size=       1KiB time=00:00:01.36 bitrate=   4.2kbits/s speed=0.0969x elapsed=0:00:14.10    \nframe=   47 fps=3.2 q=48.0 size=       1KiB time=00:00:01.53 bitrate=   3.7kbits/s speed=0.105x elapsed=0:00:14.64    \nframe=   51 fps=3.4 q=48.0 size=       1KiB time=00:00:01.66 bitrate=   3.4kbits/s speed=0.11x elapsed=0:00:15.17    \nframe=   57 fps=3.6 q=44.0 size=       1KiB time=00:00:01.86 bitrate=   3.1kbits/s speed=0.119x elapsed=0:00:15.69    \nframe=   57 fps=3.5 q=44.0 size=       1KiB time=00:00:01.86 bitrate=   3.1kbits/s speed=0.115x elapsed=0:00:16.21    \nframe=   61 fps=3.6 q=45.0 size=       1KiB time=00:00:02.00 bitrate=   2.9kbits/s speed=0.119x elapsed=0:00:16.78    \nframe=   67 fps=3.9 q=51.0 size=       1KiB time=00:00:02.20 bitrate=   2.6kbits/s speed=0.127x elapsed=0:00:17.37    \nframe=   73 fps=4.1 q=45.0 size=       1KiB time=00:00:02.40 bitrate=   2.4kbits/s speed=0.134x elapsed=0:00:17.92    \nframe=   77 fps=4.2 q=48.0 size=       1KiB time=00:00:02.53 bitrate=   2.3kbits/s speed=0.137x elapsed=0:00:18.45    \nframe=   81 fps=4.3 q=38.0 size=       1KiB time=00:00:02.66 bitrate=   2.1kbits/s speed=0.14x elapsed=0:00:19.00    \nframe=   87 fps=4.4 q=54.0 size=       1KiB time=00:00:02.86 bitrate=   2.0kbits/s speed=0.147x elapsed=0:00:19.55    \nframe=   89 fps=4.4 q=47.0 size=       1KiB time=00:00:02.93 bitrate=   1.9kbits/s speed=0.146x elapsed=0:00:20.06    \nframe=   93 fps=4.5 q=51.0 size=       1KiB time=00:00:03.06 bitrate=   1.9kbits/s speed=0.149x elapsed=0:00:20.60    \nframe=  101 fps=4.8 q=53.0 size=       1KiB time=00:00:03.33 bitrate=   1.7kbits/s speed=0.158x elapsed=0:00:21.15    \nframe=  105 fps=4.8 q=50.0 size=       1KiB time=00:00:03.46 bitrate=   1.6kbits/s speed=0.16x elapsed=0:00:21.65    \nframe=  109 fps=4.9 q=51.0 size=       1KiB time=00:00:03.60 bitrate=   1.6kbits/s speed=0.162x elapsed=0:00:22.17    \nframe=  113 fps=5.0 q=44.0 size=       1KiB time=00:00:03.73 bitrate=   1.5kbits/s speed=0.164x elapsed=0:00:22.71    \nframe=  121 fps=5.2 q=50.0 size=       1KiB time=00:00:04.00 bitrate=   1.4kbits/s speed=0.172x elapsed=0:00:23.26    \nframe=  123 fps=5.2 q=56.0 size=       1KiB time=00:00:04.06 bitrate=   1.4kbits/s speed=0.171x elapsed=0:00:23.79    \nframe=  127 fps=5.2 q=57.0 size=       1KiB time=00:00:04.20 bitrate=   1.4kbits/s speed=0.172x elapsed=0:00:24.34    \nframe=  133 fps=5.3 q=58.0 size=       1KiB time=00:00:04.40 bitrate=   1.3kbits/s speed=0.177x elapsed=0:00:24.90    \nframe=  137 fps=5.4 q=55.0 size=       1KiB time=00:00:04.53 bitrate=   1.3kbits/s speed=0.178x elapsed=0:00:25.42    \nframe=  141 fps=5.4 q=58.0 size=       1KiB time=00:00:04.66 bitrate=   1.2kbits/s speed=0.18x elapsed=0:00:25.98    \n[out#0/matroska @ 000002a467538fc0] video:2100KiB audio:0KiB subtitle:0KiB other streams:0KiB global headers:0KiB muxing overhead: 0.068116%\nframe=  150 fps=5.7 q=58.0 Lsize=    2102KiB time=00:00:04.96 bitrate=3466.7kbits/s speed=0.188x elapsed=0:00:26.46    \n",
  "seconds": 27.40348243713379,
  "probe_out": {}
}